<svg width="512" height="512" xmlns="http://www.w3.org/2000/svg">
 <g>
  <title>background</title>
  <rect fill="none" id="canvas_background" height="402" width="582" y="-1" x="-1"/>
 </g>
 <g>
  <title>Layer 1</title>
  <g id="svg_1" transform="rotate(270 256.8536987304687,256.99999999999994) translate(-3,34) scale(5.179999828338623) ">
   <clipPath class="clipPath" id="clip0">
    <polygon id="svg_2" points="24.999,86.43 0,43.213 24.999,0 74.999,0
	100,43.213 74.999,86.43 " stroke-miterlimit="10" stroke="#dddddd" fill="none"/>
   </clipPath>
   <polygon id="svg_3" clip-path="url(#clip0)" points="25.499,85.566 1,43.213 25.499,0.865 74.499,0.865 99,43.213 74.499,85.566 " class="fill-color" fill="url(#linearGradient0)"/>
   <polygon id="svg_4" clip-path="url(#clip0)" points="24.999,86.43 0,43.213 24.999,0 74.999,0
	100,43.213 74.999,86.43 " stroke-miterlimit="10" stroke-width="0" stroke="#dddddd" fill="none" class="stroke-color"/>
  </g>
  <g id="svg_5" transform="translate(167,177.5) translate(-167,-177.5) scale(2.3680050373077393) ">
   <defs transform="translate(37.584381103515625,32.939117431640625) ">
    <linearGradient id="linearGradient0" gradientTransform="translate(0.5,0.5) rotate(17) translate(-0.5,-0.5)" y2="100%" x2="0%" y1="0%" x1="0%" class="linearGradient">
     <stop stop-color="#00537d" class="linearGradientColor1" offset="0%" id="stop1"/>
     <stop stop-color="#005d4b" class="linearGradientColor2" offset="100%" id="stop2"/>
    </linearGradient>
   </defs>
   <polygon id="svg_6" class="color c1" points="139.58837890625,119.60511779785156 139.58837890625,93.95511627197266 108.10738372802734,75.77911758422852 85.88537979125977,88.60911560058594 60.086381912231445,73.71711730957031 108.2173843383789,45.92911720275879 161.97537994384766,76.96511840820312 161.97537994384766,91.34111785888672 173.2253875732422,91.34111785888672 173.2253875732422,70.4701156616211 108.2173843383789,32.939117431640625 37.584381103515625,73.7181167602539 76.62538146972656,96.25211715698242 76.62538146972656,130.30812072753906 108.10738372802734,148.48311614990234 137.60738372802734,131.4501190185547 156.119384765625,142.13611602783203 107.57637786865234,170.13011169433594 53.82038116455078,139.0931167602539 53.82038116455078,123.40411376953125 42.57038116455078,123.40411376953125 42.57038116455078,145.58712005615234 107.57437896728516,183.11611938476562 178.63137817382812,142.1401138305664 " fill="#FFFFFF"/>
   <path id="svg_7" class="color c2" d="m115.500381,125.218117l-7.393,0l-7.393,0l4.234,-15.515c-2.496,-1.188 -4.234,-3.71 -4.234,-6.66c0,-4.083 3.311,-7.392 7.393,-7.392c4.084,0 7.393,3.309 7.393,7.392c0,2.95 -1.736,5.472 -4.23,6.658l4.23,15.517z" fill="#110900"/>
  </g>
 </g>
</svg>