<svg width="190" height="60" xmlns="http://www.w3.org/2000/svg">
 <g>
  <title>background</title>
  <rect fill="none" id="canvas_background" height="402" width="582" y="-1" x="-1"/>
 </g>
 <g>
  <title>Layer 1</title>
  <rect id="svg_1" fill="#FFFFFF" height="60" width="190" y="0" x="0"/>
  <g id="svg_2" transform="rotate(270 27.929002761840817,30) translate(-2,4) scale(0.6000000238418579) ">
   <clipPath class="clipPath" id="clip0">
    <polygon id="svg_3" points="24.999,86.43 0,43.213 24.999,0 74.999,0
	100,43.213 74.999,86.43 " stroke-miterlimit="10" stroke="#dddddd" fill="none"/>
   </clipPath>
   <polygon id="svg_4" clip-path="url(#clip0)" points="25.499,85.566 1,43.213 25.499,0.865 74.499,0.865 99,43.213 74.499,85.566 " class="fill-color" fill="url(#linearGradient0)"/>
   <polygon id="svg_5" clip-path="url(#clip0)" points="24.999,86.43 0,43.213 24.999,0 74.999,0
	100,43.213 74.999,86.43 " stroke-miterlimit="10" stroke-width="0" stroke="#dddddd" fill="none" class="stroke-color"/>
  </g>
  <g id="svg_6" transform="translate(20,21) translate(-20,-21) scale(0.28359341621398926) ">
   <defs transform="translate(28.209400177001953,31.73557472229004) ">
    <linearGradient id="linearGradient0" gradientTransform="translate(0.5,0.5) rotate(17) translate(-0.5,-0.5)" y2="100%" x2="0%" y1="0%" x1="0%" class="linearGradient">
     <stop stop-color="#00537d" class="linearGradientColor1" offset="0%" id="stop1"/>
     <stop stop-color="#005d4b" class="linearGradientColor2" offset="100%" id="stop2"/>
    </linearGradient>
   </defs>
   <polygon id="svg_7" class="color c1" points="130.21339797973633,118.40157508850098 130.21339797973633,92.75157356262207 98.73240280151367,74.57557487487793 76.5103988647461,87.40557289123535 50.71140098571777,72.51357460021973 98.84240341186523,44.7255744934082 152.60039901733398,75.76157569885254 152.60039901733398,90.13757514953613 163.85040664672852,90.13757514953613 163.85040664672852,69.26657295227051 98.84240341186523,31.73557472229004 28.209400177001953,72.51457405090332 67.25040054321289,95.04857444763184 67.25040054321289,129.10457801818848 98.73240280151367,147.27957344055176 128.23240280151367,130.2465763092041 146.74440383911133,140.93257331848145 98.20139694213867,168.92656898498535 44.44540023803711,137.88957405090332 44.44540023803711,122.20057106018066 33.19540023803711,122.20057106018066 33.19540023803711,144.38357734680176 98.19939804077148,181.91257667541504 169.25639724731445,140.93657112121582 " fill="#FFFFFF"/>
   <path id="svg_8" class="color c2" d="m106.1254,124.014575l-7.393,0l-7.393,0l4.234,-15.515c-2.496,-1.188 -4.234,-3.71 -4.234,-6.66c0,-4.083 3.311,-7.392 7.393,-7.392c4.084,0 7.393,3.309 7.393,7.392c0,2.95 -1.736,5.472 -4.23,6.658l4.23,15.517z" fill="#110900"/>
  </g>
  <g id="svg_9" transform="translate(67,17.5) translate(-67,-17.5) ">
   <path id="svg_10" fill="#000000" d="m64.93,37.83l0,0l0,0q-1.17,0 -2.07,-0.24l0,0l0,0q-0.9,-0.25 -1.5,-0.69l0,0l0,0q-0.6,-0.44 -0.91,-1.06l0,0l0,0q-0.3,-0.63 -0.3,-1.38l0,0l0,0q0,-0.73 0.45,-1.17l0,0l0,0q0.45,-0.45 1.28,-0.45l0,0l0,0q0.04,0.75 0.23,1.44l0,0l0,0q0.19,0.7 0.58,1.22l0,0l0,0q0.39,0.53 0.99,0.85l0,0l0,0q0.59,0.31 1.44,0.31l0,0l0,0q1.61,0 2.52,-0.78l0,0l0,0q0.91,-0.78 0.91,-2.24l0,0l0,0q0,-0.66 -0.19,-1.16l0,0l0,0q-0.18,-0.5 -0.62,-0.93l0,0l0,0q-0.43,-0.43 -1.14,-0.82l0,0l0,0q-0.71,-0.4 -1.76,-0.83l0,0l0,0q-1.12,-0.46 -1.95,-0.98l0,0l0,0q-0.83,-0.52 -1.38,-1.16l0,0l0,0q-0.55,-0.64 -0.82,-1.42l0,0l0,0q-0.27,-0.79 -0.27,-1.77l0,0l0,0q0,-1.03 0.39,-1.84l0,0l0,0q0.39,-0.81 1.1,-1.37l0,0l0,0q0.7,-0.55 1.66,-0.85l0,0l0,0q0.96,-0.29 2.1,-0.29l0,0l0,0q1.08,0 1.91,0.22l0,0l0,0q0.83,0.23 1.4,0.6l0,0l0,0q0.58,0.38 0.88,0.86l0,0l0,0q0.3,0.49 0.3,1.02l0,0l0,0q0,0.77 -0.51,1.16l0,0l0,0q-0.51,0.4 -1.38,0.4l0,0l0,0q0,-0.57 -0.14,-1.11l0,0l0,0q-0.13,-0.55 -0.45,-0.98l0,0l0,0q-0.31,-0.42 -0.83,-0.69l0,0l0,0q-0.51,-0.27 -1.28,-0.27l0,0l0,0q-0.69,0 -1.23,0.19l0,0l0,0q-0.55,0.19 -0.92,0.55l0,0l0,0q-0.38,0.36 -0.58,0.86l0,0l0,0q-0.2,0.51 -0.2,1.13l0,0l0,0q0,0.71 0.19,1.26l0,0l0,0q0.19,0.54 0.63,0.98l0,0l0,0q0.44,0.44 1.15,0.83l0,0l0,0q0.72,0.4 1.76,0.82l0,0l0,0q1.06,0.43 1.88,0.91l0,0l0,0q0.83,0.48 1.4,1.08l0,0l0,0q0.58,0.59 0.88,1.32l0,0l0,0q0.31,0.73 0.31,1.66l0,0l0,0q0,1.13 -0.42,2.03l0,0l0,0q-0.42,0.9 -1.19,1.52l0,0l0,0q-0.77,0.62 -1.86,0.94l0,0l0,0q-1.09,0.32 -2.44,0.32zm10.65,-3.71l0,0l0,0q0,1.12 0.48,1.68l0,0l0,0q0.47,0.56 1.47,0.56l0,0l0,0q0.72,0 1.32,-0.24l0,0l0,0q0.59,-0.23 1,-0.66l0,0l0,0q0.42,-0.44 0.64,-1.06l0,0l0,0q0.22,-0.62 0.22,-1.38l0,0l0,-1.95l-1.53,0.07l0,0q-1.02,0.05 -1.71,0.25l0,0l0,0q-0.68,0.21 -1.1,0.58l0,0l0,0q-0.42,0.37 -0.61,0.91l0,0l0,0q-0.18,0.54 -0.18,1.24zm2.91,-8.43l0,0l0,0q-0.69,0 -1.12,0.2l0,0l0,0q-0.43,0.19 -0.67,0.54l0,0l0,0q-0.24,0.35 -0.32,0.83l0,0l0,0q-0.08,0.48 -0.08,1.05l0,0l0,0q-1,0 -1.52,-0.34l0,0l0,0q-0.52,-0.34 -0.52,-1.17l0,0l0,0q0,-0.63 0.34,-1.06l0,0l0,0q0.34,-0.43 0.93,-0.71l0,0l0,0q0.59,-0.27 1.38,-0.4l0,0l0,0q0.78,-0.13 1.67,-0.13l0,0l0,0q1.1,0 1.92,0.22l0,0l0,0q0.82,0.21 1.38,0.7l0,0l0,0q0.55,0.5 0.82,1.29l0,0l0,0q0.28,0.79 0.28,1.94l0,0l0,6.22l0,0q0,0.5 0.08,0.83l0,0l0,0q0.08,0.33 0.26,0.53l0,0l0,0q0.17,0.2 0.46,0.28l0,0l0,0q0.29,0.08 0.68,0.08l0,0l0.08,0l0,1.01l-3.25,0l-0.38,-2.06l-0.2,0l0,0q-0.37,0.5 -0.72,0.92l0,0l0,0q-0.35,0.43 -0.78,0.73l0,0l0,0q-0.42,0.3 -0.95,0.47l0,0l0,0q-0.53,0.17 -1.28,0.17l0,0l0,0q-0.8,0 -1.49,-0.22l0,0l0,0q-0.68,-0.23 -1.18,-0.71l0,0l0,0q-0.5,-0.47 -0.78,-1.19l0,0l0,0q-0.28,-0.72 -0.28,-1.71l0,0l0,0q0,-1.91 1.36,-2.83l0,0l0,0q1.36,-0.93 4.11,-1.01l0,0l1.99,-0.07l0,-1.44l0,0q0,-0.65 -0.07,-1.19l0,0l0,0q-0.07,-0.55 -0.3,-0.94l0,0l0,0q-0.23,-0.39 -0.67,-0.61l0,0l0,0q-0.44,-0.22 -1.18,-0.22zm14.22,10.9l0.92,0l0,1.01l-7.42,0l0,-1.01l0.32,0l0,0q0.41,0 0.76,-0.06l0,0l0,0q0.36,-0.05 0.63,-0.24l0,0l0,0q0.26,-0.18 0.42,-0.52l0,0l0,0q0.16,-0.34 0.16,-0.9l0,0l0,-9l-2.2,0l0,-1.14l2.2,0l0,-1.19l0,0q0,-1.08 0.29,-1.9l0,0l0,0q0.29,-0.82 0.84,-1.38l0,0l0,0q0.55,-0.57 1.34,-0.85l0,0l0,0q0.78,-0.29 1.77,-0.29l0,0l0,0q0.94,0 1.58,0.12l0,0l0,0q0.64,0.13 1.04,0.35l0,0l0,0q0.39,0.22 0.57,0.53l0,0l0,0q0.17,0.3 0.17,0.68l0,0l0,0q0,0.32 -0.14,0.58l0,0l0,0q-0.15,0.25 -0.42,0.42l0,0l0,0q-0.26,0.17 -0.62,0.26l0,0l0,0q-0.35,0.08 -0.79,0.08l0,0l0,0q0,-0.36 -0.07,-0.71l0,0l0,0q-0.08,-0.34 -0.26,-0.61l0,0l0,0q-0.18,-0.27 -0.49,-0.43l0,0l0,0q-0.3,-0.17 -0.76,-0.17l0,0l0,0q-0.51,0 -0.86,0.2l0,0l0,0q-0.35,0.2 -0.56,0.59l0,0l0,0q-0.21,0.39 -0.3,0.97l0,0l0,0q-0.08,0.57 -0.08,1.33l0,0l0,1.42l3.38,0l0,1.14l-3.38,0l0,9l0,0q0,0.56 0.15,0.9l0,0l0,0q0.16,0.34 0.43,0.52l0,0l0,0q0.26,0.19 0.62,0.24l0,0l0,0q0.37,0.06 0.76,0.06l0,0zm8.31,-10.8l0,0l0,0q-1.33,0 -2.05,1.08l0,0l0,0q-0.72,1.09 -0.85,3.17l0,0l5.52,0l0,0q0,-0.95 -0.14,-1.73l0,0l0,0q-0.14,-0.79 -0.45,-1.35l0,0l0,0q-0.3,-0.56 -0.8,-0.87l0,0l0,0q-0.5,-0.3 -1.23,-0.3zm0.3,12.04l0,0l0,0q-1.3,0 -2.34,-0.44l0,0l0,0q-1.04,-0.43 -1.75,-1.28l0,0l0,0q-0.72,-0.84 -1.1,-2.07l0,0l0,0q-0.38,-1.22 -0.38,-2.78l0,0l0,0q0,-3.36 1.38,-5.06l0,0l0,0q1.39,-1.7 3.94,-1.7l0,0l0,0q1.16,0 2.09,0.36l0,0l0,0q0.92,0.37 1.57,1.09l0,0l0,0q0.64,0.72 0.99,1.79l0,0l0,0q0.34,1.07 0.34,2.49l0,0l0,1.1l-7.99,0l0,0q0.02,1.31 0.26,2.26l0,0l0,0q0.24,0.94 0.7,1.55l0,0l0,0q0.45,0.61 1.1,0.9l0,0l0,0q0.66,0.28 1.51,0.28l0,0l0,0q0.63,0 1.16,-0.14l0,0l0,0q0.53,-0.14 0.97,-0.37l0,0l0,0q0.43,-0.24 0.76,-0.54l0,0l0,0q0.34,-0.29 0.55,-0.62l0,0l0,0q0.16,0.07 0.31,0.29l0,0l0,0q0.15,0.22 0.15,0.53l0,0l0,0q0,0.36 -0.26,0.78l0,0l0,0q-0.26,0.41 -0.79,0.76l0,0l0,0q-0.53,0.36 -1.32,0.59l0,0l0,0q-0.79,0.23 -1.85,0.23zm18.04,-17.2l1.74,0l3,10.4l0,0q0.34,1.19 0.6,2.29l0,0l0,0q0.26,1.09 0.43,1.92l0,0l0,0q0.17,-0.86 0.4,-1.82l0,0l0,0q0.23,-0.95 0.56,-2.11l0,0l2.11,-7.41l0,0q0.03,-0.14 0.08,-0.32l0,0l0,0q0.05,-0.17 0.08,-0.35l0,0l0,0q0.04,-0.17 0.07,-0.33l0,0l0,0q0.03,-0.15 0.03,-0.25l0,0l0,0q0,-0.62 -0.4,-0.9l0,0l0,0q-0.39,-0.27 -1.18,-0.27l0,0l-0.56,0l0,-1.01l5.86,0l0,1.01l-0.45,0l0,0q-0.35,0 -0.62,0.07l0,0l0,0q-0.26,0.07 -0.47,0.26l0,0l0,0q-0.21,0.2 -0.39,0.57l0,0l0,0q-0.18,0.36 -0.35,0.96l0,0l-4.06,14.26l-2.15,0l-3.92,-13.44l-3.66,13.44l-2.22,0l-4.39,-14.86l0,0q-0.12,-0.37 -0.27,-0.62l0,0l0,0q-0.14,-0.25 -0.34,-0.39l0,0l0,0q-0.2,-0.14 -0.47,-0.2l0,0l0,0q-0.27,-0.05 -0.62,-0.05l0,0l-0.32,0l0,-1.01l6.61,0l0,1.01l-0.55,0l0,0q-0.73,0 -1.08,0.27l0,0l0,0q-0.36,0.28 -0.36,0.87l0,0l0,0q0,0.2 0.06,0.41l0,0l0,0q0.05,0.21 0.13,0.48l0,0l2.2,7.68l0,0q0.3,1.09 0.57,2.14l0,0l0,0q0.27,1.05 0.47,1.91l0,0l0,0q0.18,-0.93 0.42,-2.04l0,0l0,0q0.24,-1.11 0.55,-2.27l0,0l2.86,-10.3zm16.56,13.49l0,0l0,0q0,1.12 0.48,1.68l0,0l0,0q0.47,0.56 1.47,0.56l0,0l0,0q0.72,0 1.32,-0.24l0,0l0,0q0.59,-0.23 1,-0.66l0,0l0,0q0.42,-0.44 0.64,-1.06l0,0l0,0q0.22,-0.62 0.22,-1.38l0,0l0,-1.95l-1.53,0.07l0,0q-1.02,0.05 -1.71,0.25l0,0l0,0q-0.68,0.21 -1.1,0.58l0,0l0,0q-0.42,0.37 -0.61,0.91l0,0l0,0q-0.18,0.54 -0.18,1.24zm2.91,-8.43l0,0l0,0q-0.69,0 -1.12,0.2l0,0l0,0q-0.43,0.19 -0.67,0.54l0,0l0,0q-0.24,0.35 -0.32,0.83l0,0l0,0q-0.08,0.48 -0.08,1.05l0,0l0,0q-1,0 -1.52,-0.34l0,0l0,0q-0.52,-0.34 -0.52,-1.17l0,0l0,0q0,-0.63 0.34,-1.06l0,0l0,0q0.34,-0.43 0.93,-0.71l0,0l0,0q0.59,-0.27 1.38,-0.4l0,0l0,0q0.78,-0.13 1.67,-0.13l0,0l0,0q1.1,0 1.92,0.22l0,0l0,0q0.82,0.21 1.37,0.7l0,0l0,0q0.56,0.5 0.83,1.29l0,0l0,0q0.28,0.79 0.28,1.94l0,0l0,6.22l0,0q0,0.5 0.08,0.83l0,0l0,0q0.08,0.33 0.26,0.53l0,0l0,0q0.17,0.2 0.46,0.28l0,0l0,0q0.29,0.08 0.68,0.08l0,0l0.08,0l0,1.01l-3.25,0l-0.38,-2.06l-0.2,0l0,0q-0.37,0.5 -0.72,0.92l0,0l0,0q-0.35,0.43 -0.78,0.73l0,0l0,0q-0.42,0.3 -0.95,0.47l0,0l0,0q-0.53,0.17 -1.28,0.17l0,0l0,0q-0.8,0 -1.49,-0.22l0,0l0,0q-0.68,-0.23 -1.18,-0.71l0,0l0,0q-0.5,-0.47 -0.78,-1.19l0,0l0,0q-0.28,-0.72 -0.28,-1.71l0,0l0,0q0,-1.91 1.36,-2.83l0,0l0,0q1.36,-0.93 4.11,-1.01l0,0l1.99,-0.07l0,-1.44l0,0q0,-0.65 -0.07,-1.19l0,0l0,0q-0.07,-0.55 -0.3,-0.94l0,0l0,0q-0.23,-0.39 -0.67,-0.61l0,0l0,0q-0.44,-0.22 -1.18,-0.22zm7.39,10.9l0.31,0l0,0q0.41,0 0.76,-0.06l0,0l0,0q0.36,-0.05 0.63,-0.24l0,0l0,0q0.26,-0.18 0.42,-0.52l0,0l0,0q0.16,-0.34 0.16,-0.9l0,0l0,-12.87l0,0q0,-0.52 -0.16,-0.85l0,0l0,0q-0.16,-0.32 -0.43,-0.5l0,0l0,0q-0.27,-0.17 -0.63,-0.22l0,0l0,0q-0.35,-0.06 -0.75,-0.06l0,0l-0.31,0l0,-1l4.54,0l0,15.5l0,0q0,0.56 0.15,0.9l0,0l0,0q0.15,0.34 0.42,0.52l0,0l0,0q0.27,0.19 0.63,0.24l0,0l0,0q0.36,0.06 0.77,0.06l0,0l0.3,0l0,1.01l-6.81,0l0,-1.01zm7.44,0l0.31,0l0,0q0.41,0 0.77,-0.06l0,0l0,0q0.35,-0.05 0.62,-0.24l0,0l0,0q0.26,-0.18 0.42,-0.52l0,0l0,0q0.16,-0.34 0.16,-0.9l0,0l0,-12.87l0,0q0,-0.52 -0.16,-0.85l0,0l0,0q-0.16,-0.32 -0.43,-0.5l0,0l0,0q-0.27,-0.17 -0.63,-0.22l0,0l0,0q-0.35,-0.06 -0.75,-0.06l0,0l-0.31,0l0,-1l4.54,0l0,15.5l0,0q0,0.56 0.15,0.9l0,0l0,0q0.15,0.34 0.42,0.52l0,0l0,0q0.27,0.19 0.63,0.24l0,0l0,0q0.36,0.06 0.77,0.06l0,0l0.3,0l0,1.01l-6.81,0l0,-1.01zm13.73,-10.8l0,0l0,0q-1.34,0 -2.06,1.08l0,0l0,0q-0.72,1.09 -0.85,3.17l0,0l5.52,0l0,0q0,-0.95 -0.14,-1.73l0,0l0,0q-0.14,-0.79 -0.45,-1.35l0,0l0,0q-0.3,-0.56 -0.8,-0.87l0,0l0,0q-0.5,-0.3 -1.22,-0.3zm0.29,12.04l0,0l0,0q-1.3,0 -2.34,-0.44l0,0l0,0q-1.04,-0.43 -1.75,-1.28l0,0l0,0q-0.71,-0.84 -1.1,-2.07l0,0l0,0q-0.38,-1.22 -0.38,-2.78l0,0l0,0q0,-3.36 1.39,-5.06l0,0l0,0q1.38,-1.7 3.93,-1.7l0,0l0,0q1.16,0 2.09,0.36l0,0l0,0q0.93,0.37 1.57,1.09l0,0l0,0q0.64,0.72 0.99,1.79l0,0l0,0q0.35,1.07 0.35,2.49l0,0l0,1.1l-8,0l0,0q0.03,1.31 0.27,2.26l0,0l0,0q0.24,0.94 0.69,1.55l0,0l0,0q0.45,0.61 1.11,0.9l0,0l0,0q0.65,0.28 1.51,0.28l0,0l0,0q0.62,0 1.15,-0.14l0,0l0,0q0.54,-0.14 0.97,-0.37l0,0l0,0q0.43,-0.24 0.77,-0.54l0,0l0,0q0.33,-0.29 0.54,-0.62l0,0l0,0q0.17,0.07 0.31,0.29l0,0l0,0q0.15,0.22 0.15,0.53l0,0l0,0q0,0.36 -0.26,0.78l0,0l0,0q-0.26,0.41 -0.78,0.76l0,0l0,0q-0.53,0.36 -1.32,0.59l0,0l0,0q-0.79,0.23 -1.86,0.23zm12.32,-1.26l0,0l0,0q0.43,0 0.79,-0.05l0,0l0,0q0.37,-0.04 0.74,-0.12l0,0l0,1.06l0,0q-0.15,0.07 -0.4,0.14l0,0l0,0q-0.24,0.07 -0.53,0.12l0,0l0,0q-0.29,0.06 -0.6,0.09l0,0l0,0q-0.32,0.02 -0.6,0.02l0,0l0,0q-0.92,0 -1.57,-0.19l0,0l0,0q-0.66,-0.19 -1.08,-0.63l0,0l0,0q-0.42,-0.43 -0.63,-1.14l0,0l0,0q-0.2,-0.72 -0.2,-1.75l0,0l0,-8.02l-1.83,0l0,-0.96l0,0q0.43,0 0.95,-0.17l0,0l0,0q0.53,-0.18 0.92,-0.59l0,0l0,0q0.42,-0.44 0.67,-1.06l0,0l0,0q0.25,-0.61 0.44,-1.54l0,0l1.1,0l0,2.95l3.14,0l0,1.37l-3.14,0l0,8.09l0,0q0,1.23 0.5,1.8l0,0l0,0q0.49,0.58 1.33,0.58z"/>
  </g>
 </g>
</svg>